<svg xmlns="http://www.w3.org/2000/svg" viewBox="0 0 142.17 32"><defs><style>.cls-1{fill:white;}.cls-2{isolation:isolate;}</style></defs><title>アセット 1</title><g id="レイヤー_2" data-name="レイヤー 2"><g id="レイヤー_1-2" data-name="レイヤー 1"><rect id="長方形_2" data-name="長方形 2" class="cls-1" width="32" height="32" rx="10"/><g class="cls-2"><path class="cls-1" d="M42.37,21.11h1.54l2.27,6.67,2.25-6.67H50V29h-1V24.34c0-.16,0-.42,0-.8s0-.77,0-1.19L46.7,29H45.64l-2.28-6.65v.24c0,.19,0,.49,0,.88s0,.69,0,.87V29h-1Z"/><path class="cls-1" d="M51.44,21.11h1v1.1h-1Zm0,2.16h1V29h-1Z"/><path class="cls-1" d="M53.88,23.25h.92v.81a2.69,2.69,0,0,1,.86-.72,2.31,2.31,0,0,1,1-.22,1.66,1.66,0,0,1,1.65.85,3,3,0,0,1,.24,1.34V29h-1V25.38a2,2,0,0,0-.16-.85A.94.94,0,0,0,56.5,24a1.85,1.85,0,0,0-.57.07,1.53,1.53,0,0,0-.7.47,1.47,1.47,0,0,0-.31.59,3.87,3.87,0,0,0-.07.87v3h-1Z"/><path class="cls-1" d="M63.55,23.41a2.2,2.2,0,0,1,.87.74,2.55,2.55,0,0,1,.38,1,6.23,6.23,0,0,1,.09,1.26H60.71a2.38,2.38,0,0,0,.41,1.41,1.36,1.36,0,0,0,1.18.53,1.52,1.52,0,0,0,1.2-.5,1.68,1.68,0,0,0,.36-.67h1a2.12,2.12,0,0,1-.25.7,2.72,2.72,0,0,1-.47.64,2.3,2.3,0,0,1-1.09.58,3.12,3.12,0,0,1-.78.08,2.41,2.41,0,0,1-1.81-.78,3.07,3.07,0,0,1-.74-2.19A3.32,3.32,0,0,1,60.42,24a2.61,2.61,0,0,1,3.13-.57Zm.35,2.25a2.59,2.59,0,0,0-.27-1,1.4,1.4,0,0,0-1.32-.7,1.46,1.46,0,0,0-1.11.48,1.83,1.83,0,0,0-.47,1.22Z"/><path class="cls-1" d="M69.91,23.55a2.26,2.26,0,0,1,.74,1.63h-.94a1.78,1.78,0,0,0-.39-.88,1.25,1.25,0,0,0-1-.35,1.37,1.37,0,0,0-1.32.9,3.6,3.6,0,0,0-.26,1.44,2.71,2.71,0,0,0,.37,1.45,1.24,1.24,0,0,0,1.15.59,1.26,1.26,0,0,0,1-.36,2,2,0,0,0,.49-1h.94a2.28,2.28,0,0,1-2.46,2.21,2.21,2.21,0,0,1-1.8-.83,3.19,3.19,0,0,1-.67-2.06,3.49,3.49,0,0,1,.74-2.36,2.37,2.37,0,0,1,1.87-.84A2.52,2.52,0,0,1,69.91,23.55Z"/><path class="cls-1" d="M71.64,23.25h.92v1a2.25,2.25,0,0,1,.55-.7,1.46,1.46,0,0,1,1-.42h.09l.22,0v1l-.16,0h-.16a1.39,1.39,0,0,0-1.12.47,1.63,1.63,0,0,0-.39,1.08V29h-1Z"/><path class="cls-1" d="M78.36,25.52a.54.54,0,0,0,.45-.28.92.92,0,0,0,.06-.37.8.8,0,0,0-.35-.72,1.85,1.85,0,0,0-1-.23,1.27,1.27,0,0,0-1.08.42,1.35,1.35,0,0,0-.23.67h-.9A1.66,1.66,0,0,1,76,23.53a2.8,2.8,0,0,1,1.54-.42,3.18,3.18,0,0,1,1.64.38,1.32,1.32,0,0,1,.63,1.21V28a.43.43,0,0,0,.06.24.3.3,0,0,0,.26.09h.15l.17,0V29l-.34.08h-.33a.78.78,0,0,1-.72-.35,1.5,1.5,0,0,1-.17-.53,2.37,2.37,0,0,1-.85.67,2.58,2.58,0,0,1-1.22.28,1.82,1.82,0,0,1-1.3-.48A1.62,1.62,0,0,1,75,27.49a1.59,1.59,0,0,1,.5-1.24,2.41,2.41,0,0,1,1.31-.54Zm-2,2.61a1.12,1.12,0,0,0,.72.24,2.31,2.31,0,0,0,1-.23,1.32,1.32,0,0,0,.8-1.29v-.77a1.75,1.75,0,0,1-.45.18,2.82,2.82,0,0,1-.55.11l-.58.08a2.09,2.09,0,0,0-.79.22.85.85,0,0,0-.45.8A.78.78,0,0,0,76.33,28.13Z"/><path class="cls-1" d="M81.85,21.49a1.47,1.47,0,0,1,1.3-.49h.19l.22,0v.88h-.35c-.29,0-.47.08-.53.23a4.29,4.29,0,0,0-.09,1.16h1V24h-1v5h-1V24h-.8v-.77h.8v-.9A1.65,1.65,0,0,1,81.85,21.49Z"/><path class="cls-1" d="M84.65,21.64h1v1.61h.92V24h-.92v3.75a.39.39,0,0,0,.21.4.83.83,0,0,0,.37.06h.15l.19,0V29a1.86,1.86,0,0,1-.34.07l-.39,0a1,1,0,0,1-.92-.34,1.59,1.59,0,0,1-.24-.9V24h-.78v-.79h.78Z"/><path class="cls-1" d="M91.39,26.45a2.31,2.31,0,0,0,.31,1.1,2,2,0,0,0,1.8.78,3.23,3.23,0,0,0,1.06-.17,1.22,1.22,0,0,0,.92-1.2,1,1,0,0,0-.39-.91,3.87,3.87,0,0,0-1.24-.47l-1-.24a4.64,4.64,0,0,1-1.44-.52,1.67,1.67,0,0,1-.73-1.48,2.31,2.31,0,0,1,.72-1.75,2.82,2.82,0,0,1,2-.68,3.48,3.48,0,0,1,2.06.6,2.19,2.19,0,0,1,.84,1.91h-1a2.25,2.25,0,0,0-.33-1,1.89,1.89,0,0,0-1.59-.61,1.83,1.83,0,0,0-1.31.39,1.3,1.3,0,0,0-.39.93.92.92,0,0,0,.46.85,7.29,7.29,0,0,0,1.39.42l1.08.26a3.23,3.23,0,0,1,1.19.5,1.88,1.88,0,0,1,.73,1.6,2,2,0,0,1-.93,1.88,4.14,4.14,0,0,1-2.16.56,3.19,3.19,0,0,1-2.25-.75,2.58,2.58,0,0,1-.79-2Z"/><path class="cls-1" d="M101.45,23.41a2.07,2.07,0,0,1,.87.74,2.42,2.42,0,0,1,.39,1,6.41,6.41,0,0,1,.08,1.26H98.61A2.53,2.53,0,0,0,99,27.84a1.38,1.38,0,0,0,1.19.53,1.55,1.55,0,0,0,1.2-.5,1.79,1.79,0,0,0,.35-.67h.95a1.75,1.75,0,0,1-.25.7,2.72,2.72,0,0,1-.47.64,2.27,2.27,0,0,1-1.08.58,3.15,3.15,0,0,1-.79.08,2.38,2.38,0,0,1-1.8-.78,3,3,0,0,1-.75-2.19A3.32,3.32,0,0,1,98.32,24a2.61,2.61,0,0,1,3.13-.57Zm.35,2.25a2.59,2.59,0,0,0-.27-1,1.38,1.38,0,0,0-1.32-.7,1.43,1.43,0,0,0-1.1.48,1.83,1.83,0,0,0-.48,1.22Z"/><path class="cls-1" d="M104.05,23.25H105v1a2.16,2.16,0,0,1,.56-.7,1.42,1.42,0,0,1,1-.42h.09l.22,0v1l-.15,0h-.16a1.38,1.38,0,0,0-1.12.47,1.59,1.59,0,0,0-.4,1.08V29h-1Z"/><path class="cls-1" d="M108.16,23.25l1.53,4.68,1.6-4.68h1.06L110.19,29h-1L107,23.25Z"/><path class="cls-1" d="M116.74,23.41a2.2,2.2,0,0,1,.87.74,2.55,2.55,0,0,1,.38,1,6.41,6.41,0,0,1,.08,1.26h-4.18a2.53,2.53,0,0,0,.41,1.41,1.38,1.38,0,0,0,1.19.53,1.55,1.55,0,0,0,1.2-.5,1.66,1.66,0,0,0,.35-.67H118a1.75,1.75,0,0,1-.25.7,2.47,2.47,0,0,1-.47.64,2.27,2.27,0,0,1-1.08.58,3.12,3.12,0,0,1-.78.08,2.38,2.38,0,0,1-1.81-.78,3,3,0,0,1-.75-2.19A3.32,3.32,0,0,1,113.6,24a2.48,2.48,0,0,1,2-.86A2.54,2.54,0,0,1,116.74,23.41Zm.34,2.25a2.59,2.59,0,0,0-.27-1,1.38,1.38,0,0,0-1.32-.7,1.44,1.44,0,0,0-1.1.48,1.83,1.83,0,0,0-.48,1.22Z"/><path class="cls-1" d="M119.33,23.25h.91v1a2.16,2.16,0,0,1,.56-.7,1.42,1.42,0,0,1,1-.42h.1l.21,0v1l-.15,0h-.16a1.38,1.38,0,0,0-1.12.47,1.59,1.59,0,0,0-.4,1.08V29h-1Z"/><path class="cls-1" d="M126.15,21.11h1.07v7h4V29h-5Z"/><path class="cls-1" d="M132.14,21.11h1v1.1h-1Zm0,2.16h1V29h-1Z"/><path class="cls-1" d="M135.16,27.2a1.38,1.38,0,0,0,.24.74,1.58,1.58,0,0,0,1.3.46,1.9,1.9,0,0,0,1-.23.78.78,0,0,0,.42-.72.62.62,0,0,0-.34-.57,3.7,3.7,0,0,0-.84-.27l-.78-.19A3.8,3.8,0,0,1,135,26a1.23,1.23,0,0,1-.63-1.09A1.67,1.67,0,0,1,135,23.6a2.44,2.44,0,0,1,1.61-.5,2.25,2.25,0,0,1,1.9.76,1.63,1.63,0,0,1,.35,1h-.91a1.09,1.09,0,0,0-.24-.59,1.55,1.55,0,0,0-1.18-.38,1.42,1.42,0,0,0-.85.21.65.65,0,0,0-.29.55.68.68,0,0,0,.38.6,2.35,2.35,0,0,0,.65.24l.65.15a5.12,5.12,0,0,1,1.42.49,1.28,1.28,0,0,1,.56,1.17,1.73,1.73,0,0,1-.59,1.32,2.53,2.53,0,0,1-1.79.56,2.42,2.42,0,0,1-1.84-.58,2.12,2.12,0,0,1-.58-1.44Z"/><path class="cls-1" d="M140.27,21.64h1v1.61h.92V24h-.92v3.75a.39.39,0,0,0,.21.4.83.83,0,0,0,.37.06H142l.19,0V29a2,2,0,0,1-.35.07l-.39,0a1,1,0,0,1-.91-.34,1.52,1.52,0,0,1-.25-.9V24h-.78v-.79h.78Z"/></g><g class="cls-2"><path class="cls-1" d="M45,12.83a1.92,1.92,0,0,0,.62.73,2.53,2.53,0,0,0,.91.41,3.81,3.81,0,0,0,1.08.14,6,6,0,0,0,.81-.06,2.92,2.92,0,0,0,.81-.25,1.79,1.79,0,0,0,.63-.49,1.29,1.29,0,0,0,.25-.8,1.12,1.12,0,0,0-.34-.85,2.81,2.81,0,0,0-.87-.54,9.81,9.81,0,0,0-1.22-.38c-.46-.1-.92-.22-1.39-.36a10.85,10.85,0,0,1-1.4-.44,4.84,4.84,0,0,1-1.23-.67,3,3,0,0,1-1.2-2.54A3.4,3.4,0,0,1,42.85,5,3.78,3.78,0,0,1,44,3.8a4.51,4.51,0,0,1,1.55-.72,6.37,6.37,0,0,1,1.72-.24,8.18,8.18,0,0,1,1.94.23,4.75,4.75,0,0,1,1.65.73A3.6,3.6,0,0,1,52,5.08,4,4,0,0,1,52.38,7H49.65a2.32,2.32,0,0,0-.25-1,1.67,1.67,0,0,0-.55-.6,2.35,2.35,0,0,0-.78-.3,4.75,4.75,0,0,0-1-.09,3.23,3.23,0,0,0-.69.07,2,2,0,0,0-.62.25,1.64,1.64,0,0,0-.46.45,1.22,1.22,0,0,0-.18.69,1.13,1.13,0,0,0,.15.61,1.26,1.26,0,0,0,.56.43,9.11,9.11,0,0,0,1.17.4l2,.5c.24.05.57.14,1,.26a5.21,5.21,0,0,1,1.27.6,3.82,3.82,0,0,1,1.08,1.11,3.1,3.1,0,0,1,.46,1.77,3.88,3.88,0,0,1-.34,1.64,3.59,3.59,0,0,1-1,1.31,4.86,4.86,0,0,1-1.67.85,7.74,7.74,0,0,1-2.31.31A8.25,8.25,0,0,1,45.41,16a5.33,5.33,0,0,1-1.77-.82,4.06,4.06,0,0,1-1.21-1.42A4.18,4.18,0,0,1,42,11.73h2.73A2.29,2.29,0,0,0,45,12.83Z"/><path class="cls-1" d="M57,13.77a2.31,2.31,0,0,0,1.66.56,2.25,2.25,0,0,0,1.33-.39,1.66,1.66,0,0,0,.69-.82h2.25a4.27,4.27,0,0,1-1.66,2.39,4.88,4.88,0,0,1-2.7.72,5.21,5.21,0,0,1-2-.35,3.88,3.88,0,0,1-1.49-1,4.39,4.39,0,0,1-.95-1.54,5.71,5.71,0,0,1-.33-2,5.4,5.4,0,0,1,.34-1.95,4.48,4.48,0,0,1,1-1.55,4.54,4.54,0,0,1,1.5-1,4.9,4.9,0,0,1,1.94-.38,4.39,4.39,0,0,1,2.07.46A4.23,4.23,0,0,1,62,8.13a5.13,5.13,0,0,1,.82,1.77A6.45,6.45,0,0,1,63,12H56.32A2.61,2.61,0,0,0,57,13.77Zm2.89-4.9a1.8,1.8,0,0,0-1.39-.5,2.2,2.2,0,0,0-1,.21,1.76,1.76,0,0,0-.65.51,1.93,1.93,0,0,0-.34.65,3.11,3.11,0,0,0-.12.61h4.16A2.94,2.94,0,0,0,59.84,8.87Z"/><path class="cls-1" d="M67,6.69V8.42h0a3.27,3.27,0,0,1,.48-.8A3.8,3.8,0,0,1,68.2,7a3.47,3.47,0,0,1,.85-.4A2.94,2.94,0,0,1,70,6.44a2,2,0,0,1,.55.09V8.91a3.51,3.51,0,0,0-.43-.07l-.48,0a2.8,2.8,0,0,0-1.19.23,2.09,2.09,0,0,0-.79.64,2.83,2.83,0,0,0-.42,1,5.39,5.39,0,0,0-.12,1.17V16H64.55V6.69Z"/><path class="cls-1" d="M73.86,16,70.67,6.69h2.68l2,6.36h0l2-6.36h2.54L76.7,16Z"/><path class="cls-1" d="M83.65,13.77a2.27,2.27,0,0,0,1.65.56,2.25,2.25,0,0,0,1.33-.39,1.56,1.56,0,0,0,.69-.82h2.25a4.22,4.22,0,0,1-1.66,2.39,4.86,4.86,0,0,1-2.7.72,5.21,5.21,0,0,1-2-.35,4,4,0,0,1-1.49-1,4.54,4.54,0,0,1-.95-1.54,5.71,5.71,0,0,1-.33-2,5.4,5.4,0,0,1,.34-1.95,4.6,4.6,0,0,1,2.48-2.59,4.82,4.82,0,0,1,1.93-.38,4.36,4.36,0,0,1,2.07.46,4.23,4.23,0,0,1,1.45,1.23,5.13,5.13,0,0,1,.82,1.77A6.45,6.45,0,0,1,89.73,12H83A2.52,2.52,0,0,0,83.65,13.77Zm2.89-4.9a1.84,1.84,0,0,0-1.4-.5,2.2,2.2,0,0,0-1,.21,1.73,1.73,0,0,0-.64.51,1.79,1.79,0,0,0-.35.65,3,3,0,0,0-.11.61h4.15A3,3,0,0,0,86.54,8.87Z"/><path class="cls-1" d="M93.67,6.69V8.42h0a3,3,0,0,1,.49-.8,3.26,3.26,0,0,1,1.54-1,3,3,0,0,1,.94-.15,2,2,0,0,1,.56.09V8.91a3.87,3.87,0,0,0-.43-.07l-.49,0a2.8,2.8,0,0,0-1.19.23,2.14,2.14,0,0,0-.78.64,2.66,2.66,0,0,0-.43,1,5.39,5.39,0,0,0-.12,1.17V16H91.24V6.69Z"/><path class="cls-1" d="M100.4,13.69a1.45,1.45,0,0,0,.44.48,1.76,1.76,0,0,0,.62.28,2.92,2.92,0,0,0,.73.09,2.74,2.74,0,0,0,.56-.06,1.83,1.83,0,0,0,.54-.2,1.19,1.19,0,0,0,.41-.36.94.94,0,0,0,.16-.57c0-.38-.25-.67-.76-.86a17,17,0,0,0-2.14-.58c-.37-.08-.73-.18-1.09-.29a4.1,4.1,0,0,1-.94-.45,2.17,2.17,0,0,1-.67-.71,1.94,1.94,0,0,1-.25-1A2.87,2.87,0,0,1,98.36,8a2.67,2.67,0,0,1,.93-.9,3.9,3.9,0,0,1,1.29-.47,8.15,8.15,0,0,1,1.48-.14,7.12,7.12,0,0,1,1.47.15,3.8,3.8,0,0,1,1.27.48,2.86,2.86,0,0,1,.92.91,3,3,0,0,1,.44,1.43h-2.42a1.15,1.15,0,0,0-.56-1A2.61,2.61,0,0,0,102,8.15l-.47,0a1.64,1.64,0,0,0-.46.12.89.89,0,0,0-.35.26.7.7,0,0,0-.14.46.68.68,0,0,0,.25.55,1.73,1.73,0,0,0,.66.35,7.51,7.51,0,0,0,.92.25l1.06.23c.38.09.74.19,1.09.31a3.83,3.83,0,0,1,1,.47,2.22,2.22,0,0,1,.66.74,2.17,2.17,0,0,1,.26,1.09,3,3,0,0,1-.37,1.54,3,3,0,0,1-1,1,3.85,3.85,0,0,1-1.35.53,8.09,8.09,0,0,1-1.56.15,7.66,7.66,0,0,1-1.59-.16,4.27,4.27,0,0,1-1.37-.54,3.05,3.05,0,0,1-1-1A3.14,3.14,0,0,1,97.79,13h2.44A1.36,1.36,0,0,0,100.4,13.69Z"/></g></g></g></svg>